<svg width="44" height="44" viewBox="0 0 44 44" fill="none" xmlns="http://www.w3.org/2000/svg">
<path d="M38.5001 26.7301C38.5001 26.0701 38.1517 25.4651 37.6017 25.0984L23.8334 16.5001V6.41675C23.8334 4.89508 22.6051 3.66675 21.0834 3.66675C19.5617 3.66675 18.3334 4.89508 18.3334 6.41675V16.5001L4.56508 25.0984C4.01508 25.4467 3.66675 26.0701 3.66675 26.7301C3.66675 28.0134 4.91341 28.9484 6.16008 28.5634L18.3334 24.7501V34.8334L15.0334 37.3084C14.7951 37.4734 14.6667 37.7484 14.6667 38.0417V39.1234C14.6667 39.7284 15.2534 40.1684 15.8401 40.0034L21.0834 38.5001L26.3267 40.0034C26.9134 40.1684 27.5001 39.7284 27.5001 39.1234V38.0417C27.5001 37.7484 27.3717 37.4734 27.1334 37.3084L23.8334 34.8334V24.7501L36.0067 28.5634C37.2534 28.9484 38.5001 28.0134 38.5001 26.7301Z" fill="#4884FC"/>
</svg>
