<svg width="44" height="44" viewBox="0 0 44 44" fill="none" xmlns="http://www.w3.org/2000/svg">
<path d="M22 23.375C24.9883 23.375 27.6283 24.09 29.7733 25.025C31.7533 25.905 33 27.885 33 30.03V31.1667C33 32.175 32.175 33 31.1667 33H12.8333C11.825 33 11 32.175 11 31.1667V30.0483C11 27.885 12.2467 25.905 14.2267 25.0433C16.3717 24.09 19.0117 23.375 22 23.375ZM7.33333 23.8333C9.35 23.8333 11 22.1833 11 20.1667C11 18.15 9.35 16.5 7.33333 16.5C5.31667 16.5 3.66667 18.15 3.66667 20.1667C3.66667 22.1833 5.31667 23.8333 7.33333 23.8333ZM9.405 25.85C8.72667 25.74 8.04833 25.6667 7.33333 25.6667C5.51833 25.6667 3.795 26.0517 2.23667 26.73C0.88 27.3167 0 28.6367 0 30.1217V31.1667C0 32.175 0.825 33 1.83333 33H8.25V30.0483C8.25 28.5267 8.67167 27.0967 9.405 25.85ZM36.6667 23.8333C38.6833 23.8333 40.3333 22.1833 40.3333 20.1667C40.3333 18.15 38.6833 16.5 36.6667 16.5C34.65 16.5 33 18.15 33 20.1667C33 22.1833 34.65 23.8333 36.6667 23.8333ZM44 30.1217C44 28.6367 43.12 27.3167 41.7633 26.73C40.205 26.0517 38.4817 25.6667 36.6667 25.6667C35.9517 25.6667 35.2733 25.74 34.595 25.85C35.3283 27.0967 35.75 28.5267 35.75 30.0483V33H42.1667C43.175 33 44 32.175 44 31.1667V30.1217ZM22 11C25.0433 11 27.5 13.4567 27.5 16.5C27.5 19.5433 25.0433 22 22 22C18.9567 22 16.5 19.5433 16.5 16.5C16.5 13.4567 18.9567 11 22 11Z" fill="#4884FC"/>
</svg>
