<svg width="44" height="44" viewBox="0 0 44 44" fill="none" xmlns="http://www.w3.org/2000/svg">
<path d="M32.9999 11.0001H29.3333C29.3333 6.94841 26.0516 3.66675 21.9999 3.66675C17.9483 3.66675 14.6666 6.94841 14.6666 11.0001H10.9999C8.98325 11.0001 7.33325 12.6501 7.33325 14.6667V36.6667C7.33325 38.6834 8.98325 40.3334 10.9999 40.3334H32.9999C35.0166 40.3334 36.6666 38.6834 36.6666 36.6667V14.6667C36.6666 12.6501 35.0166 11.0001 32.9999 11.0001ZM18.3333 18.3334C18.3333 19.3417 17.5083 20.1667 16.4999 20.1667C15.4916 20.1667 14.6666 19.3417 14.6666 18.3334V14.6667H18.3333V18.3334ZM21.9999 7.33341C24.0166 7.33341 25.6666 8.98341 25.6666 11.0001H18.3333C18.3333 8.98341 19.9833 7.33341 21.9999 7.33341ZM29.3333 18.3334C29.3333 19.3417 28.5083 20.1667 27.4999 20.1667C26.4916 20.1667 25.6666 19.3417 25.6666 18.3334V14.6667H29.3333V18.3334Z" fill="#4884FC"/>
</svg>
