<svg width="44" height="44" viewBox="0 0 44 44" fill="none" xmlns="http://www.w3.org/2000/svg">
<path d="M9.16656 10.9999H34.8332C35.8416 10.9999 36.6666 10.1749 36.6666 9.16659C36.6666 8.15825 35.8416 7.33325 34.8332 7.33325H9.16656C8.15822 7.33325 7.33322 8.15825 7.33322 9.16659C7.33322 10.1749 8.15822 10.9999 9.16656 10.9999ZM36.9599 14.2999C36.7949 13.4566 36.0432 12.8333 35.1632 12.8333H8.83656C7.95656 12.8333 7.20489 13.4566 7.03989 14.2999L5.20656 23.4666C4.98656 24.6033 5.84822 25.6666 7.00322 25.6666H7.33322V34.8332C7.33322 35.8416 8.15822 36.6666 9.16656 36.6666H23.8332C24.8416 36.6666 25.6666 35.8416 25.6666 34.8332V25.6666H32.9999V34.8332C32.9999 35.8416 33.8249 36.6666 34.8332 36.6666C35.8416 36.6666 36.6666 35.8416 36.6666 34.8332V25.6666H36.9966C38.1516 25.6666 39.0132 24.6033 38.7932 23.4666L36.9599 14.2999ZM21.9999 32.9999H10.9999V25.6666H21.9999V32.9999Z" fill="#4884FC"/>
</svg>
