<svg width="44" height="44" viewBox="0 0 44 44" fill="none" xmlns="http://www.w3.org/2000/svg">
<path d="M4.63831 36.0251L7.09498 37.0517V20.4967L2.63998 31.2401C1.88831 33.1101 2.78664 35.2551 4.63831 36.0251ZM40.3883 29.2417L31.295 7.29675C30.7266 5.92175 29.3883 5.07841 27.9766 5.04175C27.5 5.04175 27.005 5.11508 26.5283 5.31675L13.0166 10.9084C11.6416 11.4767 10.7983 12.7967 10.7616 14.2084C10.7433 14.7034 10.835 15.1984 11.0366 15.6751L20.13 37.6201C20.6983 39.0134 22.055 39.8567 23.485 39.8751C23.9616 39.8751 24.4383 39.7834 24.8966 39.6001L38.39 34.0084C40.26 33.2384 41.1583 31.0934 40.3883 29.2417ZM14.4466 16.0417C13.4383 16.0417 12.6133 15.2167 12.6133 14.2084C12.6133 13.2001 13.4383 12.3751 14.4466 12.3751C15.455 12.3751 16.28 13.2001 16.28 14.2084C16.28 15.2167 15.455 16.0417 14.4466 16.0417ZM10.78 36.2084C10.78 38.2251 12.43 39.8751 14.4466 39.8751H17.105L10.78 24.5851V36.2084Z" fill="#4884FC"/>
</svg>
