<svg width="38" height="38" viewBox="0 0 38 38" fill="none" xmlns="http://www.w3.org/2000/svg">
<path d="M36.2517 18.2301L19.7517 1.73008C19.0917 1.07008 18.1751 0.666748 17.1667 0.666748H4.33341C2.31675 0.666748 0.666748 2.31675 0.666748 4.33341V17.1667C0.666748 18.1751 1.07008 19.0917 1.74841 19.7701L18.2484 36.2701C18.9084 36.9301 19.8251 37.3334 20.8334 37.3334C21.8417 37.3334 22.7584 36.9301 23.4184 36.2517L36.2517 23.4184C36.9301 22.7584 37.3334 21.8417 37.3334 20.8334C37.3334 19.8251 36.9117 18.8901 36.2517 18.2301ZM7.08342 9.83342C5.56175 9.83342 4.33341 8.60508 4.33341 7.08342C4.33341 5.56175 5.56175 4.33341 7.08342 4.33341C8.60508 4.33341 9.83342 5.56175 9.83342 7.08342C9.83342 8.60508 8.60508 9.83342 7.08342 9.83342Z" fill="#4884FC"/>
</svg>
