<svg width="414" height="159" viewBox="0 0 414 159" fill="none" xmlns="http://www.w3.org/2000/svg">
<g filter="url(#filter0_d)">
<path fill-rule="evenodd" clip-rule="evenodd" d="M0 134V159H24.9162C24.9442 159 24.9721 159 25 159H389C389.028 159 389.056 159 389.084 159H414V134V77.0482V45C392.08 49.8566 361.946 55.2309 327 59.6746V59.786C305.407 62.0497 283.298 63.5078 261.165 64.294C249.974 64.6915 241 73.8024 241 85.0001C241 94.389 233.389 102 224 102H190C180.611 102 173 94.389 173 85.0001C173 73.3622 163.786 63.8292 152.164 63.2219C105.874 60.8026 63.5434 56.169 30.5846 50.7868C29.4119 50.5953 28.2446 50.4841 27.0884 50.4487C17.0768 48.6105 7.99231 46.7708 0 45V76.1456V134Z" fill="white"/>
</g>
<defs>
<filter id="filter0_d" x="-40" y="0" width="494" height="194" filterUnits="userSpaceOnUse" color-interpolation-filters="sRGB">
<feFlood flood-opacity="0" result="BackgroundImageFix"/>
<feColorMatrix in="SourceAlpha" type="matrix" values="0 0 0 0 0 0 0 0 0 0 0 0 0 0 0 0 0 0 127 0"/>
<feOffset dy="-5"/>
<feGaussianBlur stdDeviation="20"/>
<feColorMatrix type="matrix" values="0 0 0 0 0 0 0 0 0 0 0 0 0 0 0 0 0 0 0.05 0"/>
<feBlend mode="normal" in2="BackgroundImageFix" result="effect1_dropShadow"/>
<feBlend mode="normal" in="SourceGraphic" in2="effect1_dropShadow" result="shape"/>
</filter>
</defs>
</svg>